<svg width="8" height="14" viewBox="0 0 8 14" fill="none" xmlns="http://www.w3.org/2000/svg">
<path d="M6.78276 1.28212C6.86939 1.3708 6.91789 1.48986 6.91789 1.61383C6.91789 1.73781 6.86939 1.85687 6.78276 1.94555M6.78276 1.28212L6.78375 12.5367C6.87038 12.448 6.91888 12.3289 6.91888 12.2049C6.91888 12.081 6.87038 11.9619 6.78375 11.8732L6.78276 11.8732L1.94406 6.90939L6.78276 1.94555M6.78276 1.28212C6.74068 1.23917 6.69046 1.20506 6.63504 1.18177C6.57961 1.15848 6.5201 1.14648 6.45998 1.14648C6.39986 1.14648 6.34034 1.15848 6.28492 1.18177C6.22949 1.20506 6.17927 1.23917 6.1372 1.28212L6.78276 1.28212ZM6.78276 1.94555L7.01982 2.17663L7.01967 2.17679C7.01963 2.17682 7.0196 2.17686 7.01957 2.17689L2.40638 6.90939L6.92237 11.5422L6.92315 11.5422L7.02056 11.6419C7.16761 11.7924 7.24994 11.9945 7.24994 12.2049C7.24994 12.4153 7.16766 12.6173 7.02069 12.7679L6.78276 1.94555Z" fill="black" stroke="black" stroke-width="0.662109"/>
</svg>
