<svg width="58" height="41" viewBox="0 0 58 41" fill="none" xmlns="http://www.w3.org/2000/svg">
<path fill-rule="evenodd" clip-rule="evenodd" d="M1.0126 0.40639C0.964499 0.628769 0.910466 0.880818 0.892976 0.966709C0.875485 1.0526 0.830822 1.16972 0.793967 1.22719C0.757112 1.28435 0.710263 1.4833 0.689961 1.66945C0.669348 1.8556 0.598449 2.12514 0.531923 2.26819C0.465709 2.41123 0.38544 2.63392 0.353582 2.7626C-0.0483856 4.39983 -0.0896131 4.83866 0.139012 5.04354C0.388876 5.26686 0.434476 5.29841 0.56784 5.34057C0.637178 5.36243 0.72463 5.42396 0.762109 5.47706C0.799589 5.53015 0.862992 5.57357 0.903282 5.57357C1.07975 5.57357 1.08443 5.74285 1.08443 11.9413C1.08443 17.5164 1.09224 18.1108 1.16689 18.1395C1.37365 18.2189 11.3445 18.1733 11.4254 18.0924C11.4685 18.0493 11.5253 18.0271 11.5515 18.0433C11.5781 18.0596 11.5996 18.0483 11.5996 18.018C11.5996 17.9874 11.6705 17.9627 11.7574 17.9627C11.8495 17.9627 11.9276 17.9303 11.9451 17.8847C11.9616 17.8416 12.0135 17.8056 12.0606 17.8044C12.1075 17.8031 12.2399 17.7454 12.3542 17.6763C12.4688 17.607 12.6388 17.5117 12.7318 17.4643C12.8249 17.4171 12.9008 17.3574 12.9008 17.3321C12.9008 17.3068 12.9336 17.2859 12.9736 17.2859C13.0135 17.2859 13.1213 17.2156 13.2131 17.1298C13.3053 17.0439 13.4021 16.9736 13.4283 16.9736C13.4546 16.9736 13.4989 16.9139 13.5267 16.8409C13.5554 16.7646 13.6438 16.685 13.7338 16.6535C13.8256 16.6216 13.9024 16.551 13.9196 16.4832C13.9355 16.4195 14.0174 16.3271 14.1011 16.2774C14.1851 16.2281 14.2807 16.1359 14.3138 16.0731C14.3469 16.0101 14.3894 15.947 14.4081 15.9326C14.5162 15.8495 14.7748 15.3866 14.7748 15.2758C14.7748 15.2039 14.8313 15.0703 14.9003 14.9791C14.9734 14.8825 15.0524 14.672 15.089 14.475C15.1236 14.2888 15.1845 14.0849 15.2239 14.0215C15.3045 13.8915 15.3295 12.4151 15.2517 12.3842C15.2276 12.3745 15.1549 12.1444 15.0899 11.8723C15.0199 11.5794 14.9316 11.3398 14.8732 11.2848C14.8191 11.2336 14.7748 11.1371 14.7748 11.0706C14.7748 11.0037 14.7279 10.8897 14.6708 10.817C14.6136 10.7442 14.5668 10.663 14.5668 10.6364C14.5668 10.5515 14.1948 10.107 14.0983 10.0764C14.047 10.0602 13.9765 9.97741 13.9412 9.89246C13.9062 9.80751 13.8584 9.73817 13.835 9.73817C13.8119 9.73817 13.6616 9.61105 13.5014 9.45582C13.1828 9.14724 12.8183 8.90862 12.5407 8.82648C12.3214 8.76183 12.2805 8.66813 12.4526 8.62503C12.5235 8.60722 12.5966 8.5457 12.6147 8.48854C12.6328 8.43138 12.6756 8.38453 12.7096 8.38453C12.7887 8.38453 13.3174 7.84826 13.3174 7.76799C13.3174 7.73489 13.3459 7.70803 13.3808 7.70803C13.4489 7.70803 13.6816 7.46004 13.6816 7.38758C13.6816 7.36322 13.7144 7.34354 13.7541 7.34354C13.7941 7.34354 13.8653 7.25577 13.9127 7.14833C13.9599 7.04089 14.0561 6.85943 14.1261 6.7448C14.196 6.63049 14.2925 6.43122 14.3406 6.30255C14.3887 6.17355 14.4593 6.03113 14.4974 5.98616C14.5355 5.94087 14.5668 5.78751 14.5668 5.64509C14.5668 5.50267 14.593 5.35994 14.6255 5.32745C14.7635 5.1894 14.6345 3.29919 14.4618 2.93189C14.3997 2.79946 14.3397 2.64454 14.3288 2.5877C14.3178 2.53054 14.2894 2.47058 14.266 2.45433C14.2422 2.43778 14.1832 2.31878 14.1348 2.1901C14.0386 1.93431 13.7628 1.58294 13.6763 1.60574C13.6463 1.61354 13.6341 1.60043 13.6491 1.57606C13.6638 1.55201 13.6304 1.49954 13.5748 1.45925C13.5192 1.41927 13.4736 1.35618 13.4736 1.31964C13.4736 1.2831 13.4421 1.25312 13.4036 1.25312C13.3655 1.25312 13.3084 1.19658 13.2768 1.12756C13.2453 1.05853 13.1663 0.984824 13.1013 0.96421C13.036 0.943597 12.9392 0.871449 12.8861 0.803673C12.8327 0.735898 12.7549 0.680615 12.7134 0.680615C12.6715 0.680615 12.6241 0.645634 12.6075 0.602845C12.5913 0.560368 12.4863 0.497902 12.3742 0.464483C12.2624 0.430752 12.145 0.372034 12.1131 0.333617C12.0812 0.295513 11.9775 0.263968 11.8826 0.263968C11.7877 0.263968 11.6943 0.238981 11.6755 0.208373C11.6565 0.177765 11.6084 0.165584 11.5681 0.180888C11.5281 0.196192 11.4953 0.186198 11.4953 0.1584C11.4953 0.130603 11.4485 0.107803 11.3913 0.107803C11.3341 0.107803 11.2873 0.0853152 11.2873 0.0578302C11.2873 0.0259726 9.42519 0.00660822 6.19383 0.00473424L1.10036 0.00192327L1.0126 0.40639ZM17.1572 0.07657C17.0991 0.120296 17.0498 0.266154 17.0182 0.488533C16.9914 0.678117 16.9511 0.863016 16.9283 0.89987C16.8927 0.957651 16.8686 1.07228 16.7837 1.59137C16.7743 1.64884 16.7415 1.75784 16.7109 1.83374C16.6803 1.90994 16.6391 2.12077 16.6194 2.30223C16.5997 2.48401 16.5513 2.71169 16.5123 2.8082C16.4729 2.90471 16.4407 3.02777 16.4407 3.08149C16.4407 3.13521 16.4173 3.17925 16.3886 3.17925C16.3598 3.17925 16.3364 3.31636 16.3364 3.48721C16.3364 3.65649 16.3142 3.80297 16.2871 3.81234C16.0869 3.88293 16.0528 5.15723 16.2512 5.15723C16.2914 5.15723 16.3367 5.20408 16.3517 5.26124C16.3683 5.32527 16.4226 5.36556 16.4926 5.36556C16.555 5.36556 16.6659 5.41241 16.7387 5.46956C16.8115 5.52672 16.9092 5.57357 16.9558 5.57357C17.1488 5.57357 17.1507 5.62916 17.1413 11.9757C17.1347 16.4233 17.1482 18.222 17.1894 18.2876C17.2431 18.3738 17.4717 18.3791 20.9786 18.3791C24.9826 18.3791 24.9776 18.3794 24.9776 18.1186C24.9776 18.0311 25.0217 17.8256 25.0757 17.6617C25.1294 17.498 25.19 17.2122 25.2097 17.0264C25.2297 16.8405 25.2647 16.6647 25.2875 16.636C25.3212 16.5932 25.3765 16.338 25.4224 16.0107C25.4265 15.9819 25.4589 15.8882 25.4945 15.8024C25.5302 15.7165 25.572 15.5175 25.5876 15.3601C25.6035 15.2027 25.6385 15.0456 25.6654 15.0115C25.7366 14.9213 25.8612 14.4247 25.8618 14.2285C25.8622 14.1361 25.9212 13.8581 25.9927 13.6111C26.0642 13.364 26.123 13.0623 26.123 12.9405V12.719L25.3121 12.6816C24.8661 12.6606 24.0719 12.6606 23.5469 12.6813L22.5927 12.7187L22.5074 12.5535C22.4293 12.4023 22.4231 11.8592 22.4375 6.25476C22.4496 1.46456 22.439 0.108115 22.3891 0.0615782C22.2913 -0.029622 17.2803 -0.0152548 17.1572 0.07657ZM27.7483 0.120921C27.6734 0.273025 27.5718 0.780873 27.6056 0.835531C27.6199 0.858955 27.6003 0.889876 27.5619 0.904868C27.5231 0.919547 27.4763 1.04323 27.4575 1.17972C27.4391 1.31621 27.3932 1.46456 27.3557 1.50954C27.3186 1.55451 27.2436 1.77877 27.1889 2.00802C27.1343 2.23695 27.0596 2.45527 27.0228 2.49306C26.9859 2.53085 26.9556 2.64079 26.9556 2.73699C26.9556 2.83319 26.9297 2.97811 26.8978 3.05869C26.866 3.13927 26.7842 3.416 26.7164 3.67367C26.6483 3.93134 26.583 4.17746 26.5715 4.22056C26.5599 4.26366 26.5243 4.39515 26.4924 4.51321C26.3803 4.92923 26.5724 5.3134 26.8925 5.3134C26.9313 5.3134 27.0393 5.3718 27.133 5.44333C27.227 5.51485 27.3666 5.57857 27.4438 5.58512C27.6399 5.60137 27.6303 5.43115 27.6452 9.20627C27.6549 11.6827 27.6746 12.615 27.7177 12.6419C27.7505 12.6625 27.8042 12.8665 27.8373 13.0957C27.9007 13.537 28.0763 14.1714 28.1825 14.345C28.2174 14.4022 28.2637 14.5078 28.2849 14.5793C28.3061 14.6508 28.367 14.7651 28.4205 14.8335C28.4739 14.9016 28.5173 14.9997 28.5173 15.0509C28.5173 15.1024 28.5473 15.1752 28.5841 15.213C28.6207 15.2511 28.719 15.4226 28.8027 15.5943C28.8864 15.7661 29.0029 15.9535 29.062 16.0107C29.121 16.0678 29.235 16.2031 29.3153 16.3111C29.4802 16.5326 29.7035 16.7656 29.751 16.7656C29.7685 16.7656 29.9196 16.9061 30.0874 17.0779C30.2548 17.2497 30.4259 17.3902 30.4671 17.3902C30.5084 17.3902 30.5612 17.4202 30.584 17.4571C30.6677 17.5917 30.9294 17.7544 31.0624 17.7544C31.1427 17.7544 31.2261 17.7975 31.2642 17.8587C31.2998 17.9159 31.3766 17.9627 31.4344 17.9627C31.4925 17.9627 31.5534 17.9977 31.5697 18.0408C31.5862 18.0836 31.6334 18.1189 31.6749 18.1189C31.7161 18.1189 31.8467 18.1658 31.9654 18.2229C32.0838 18.2804 32.2227 18.3272 32.274 18.3272C32.3686 18.3272 32.7081 18.4428 32.937 18.5534C33.3012 18.7286 36.6129 18.6127 36.7459 18.4197C36.7625 18.3959 36.9018 18.3616 37.0557 18.3432C37.2097 18.325 37.3952 18.2791 37.4683 18.241C37.5411 18.2029 37.6254 18.1714 37.6557 18.1714C37.7416 18.1708 37.9905 18.0449 37.9908 18.0018C37.9912 17.9802 38.0692 17.9627 38.1642 17.9627C38.2835 17.9627 38.3719 17.9225 38.4503 17.8325C38.5124 17.761 38.5974 17.7026 38.6386 17.7026C38.6802 17.7026 38.7479 17.6545 38.7892 17.5954C38.8304 17.5367 38.9172 17.4846 38.9822 17.4799C39.0471 17.4749 39.1112 17.4293 39.1246 17.3784C39.1377 17.3278 39.1849 17.2859 39.2292 17.2859C39.2733 17.2859 39.3701 17.2188 39.4441 17.1366C39.5185 17.0545 39.6318 16.9711 39.6962 16.9511C39.7605 16.9311 39.8267 16.8599 39.8436 16.7931C39.8605 16.7259 39.9207 16.6591 39.9776 16.6441C40.0347 16.6291 40.0941 16.5688 40.1094 16.5098C40.1247 16.4504 40.2168 16.3533 40.3136 16.2933C40.4354 16.2181 40.4901 16.1453 40.4901 16.0585C40.4901 15.9891 40.5195 15.9326 40.5554 15.9326C40.6191 15.9326 40.9064 15.6596 40.9064 15.599C40.9064 15.5822 40.9539 15.5206 41.0123 15.4625C41.0704 15.4045 41.1316 15.2876 41.1485 15.2033C41.1654 15.119 41.2116 15.0231 41.2509 14.9903C41.2906 14.9575 41.3228 14.876 41.3228 14.8088C41.3228 14.7401 41.3684 14.6627 41.4271 14.6311C41.4946 14.5952 41.5311 14.5221 41.5311 14.4244C41.5311 14.341 41.553 14.2594 41.5798 14.2429C41.6748 14.1842 41.7844 13.8975 41.8197 13.6154C41.8394 13.4583 41.8762 13.33 41.9015 13.33C41.9268 13.33 41.9474 13.186 41.9474 13.0101C41.9474 12.7659 41.969 12.675 42.0386 12.6241C42.1554 12.5385 42.2085 0.295201 42.093 0.109989C42.0321 0.0125425 41.9421 0.00910685 39.4488 0.0053589L36.8677 0.00129861L36.8543 0.197754C36.8471 0.305508 36.819 0.416384 36.7915 0.443557C36.7234 0.511957 36.7259 2.71076 36.794 2.71076C36.8227 2.71076 36.8462 2.79259 36.8462 2.89284C36.8462 2.9931 36.8234 3.07493 36.7956 3.07493C36.7631 3.07493 36.7397 4.68093 36.7303 7.51282L36.7159 11.9504L36.5988 12.1731C36.5345 12.2958 36.4817 12.4639 36.4817 12.5469C36.4817 12.6634 36.4551 12.7022 36.3645 12.7159C36.2933 12.7269 36.2543 12.7637 36.2649 12.8106C36.2743 12.8527 36.2649 12.8699 36.2434 12.8487C36.2221 12.8271 36.1281 12.8683 36.0344 12.9395C35.9407 13.0111 35.8273 13.0695 35.7824 13.0695C35.7377 13.0695 35.7009 13.0904 35.7009 13.1157C35.7009 13.3543 34.5218 13.409 34.207 13.1847C34.118 13.1213 33.9977 13.0695 33.9396 13.0695C33.8797 13.0695 33.8197 13.0245 33.8009 12.9655C33.7828 12.9083 33.7263 12.8615 33.6754 12.8615C33.5595 12.8615 33.2194 12.2321 33.171 11.9282C33.1522 11.8114 33.1166 11.7162 33.0916 11.7162C33.0257 11.7162 33.0323 0.747141 33.0982 0.706539C33.1269 0.688736 33.1504 0.563804 33.1504 0.428878C33.1504 -0.0199398 33.305 0.00379725 30.3734 0.00379725H27.8061L27.7483 0.120921ZM44.8237 0.14497C44.759 0.157151 44.7066 0.198066 44.7066 0.23617C44.7066 0.273962 44.6744 0.317376 44.635 0.332368C44.561 0.36079 44.4226 0.882068 44.3717 1.32245C44.3558 1.46081 44.3111 1.64821 44.2724 1.73879C44.1528 2.0177 44.0291 2.41904 44.0294 2.52648C44.0297 2.63611 43.8311 3.49064 43.6637 4.09875C43.6075 4.30364 43.5606 4.53788 43.5597 4.61909C43.5587 4.7003 43.5234 4.81242 43.4816 4.86802C43.3045 5.10195 43.4401 5.41709 43.749 5.49018C43.8317 5.50985 43.9932 5.54796 44.1078 5.57451C44.2224 5.60137 44.4098 5.65665 44.5242 5.69756L44.7325 5.77221L44.7456 11.9301C44.7531 15.317 44.7765 18.1055 44.7978 18.1267C44.8668 18.1951 55.044 18.2014 55.1265 18.133C55.1665 18.0999 55.2039 18.0065 55.2102 17.9253C55.2164 17.8441 55.2586 17.6495 55.3039 17.4927C55.3492 17.3362 55.406 17.0323 55.4304 16.8174C55.4551 16.6029 55.5263 16.2983 55.5887 16.1409C55.6515 15.9835 55.7212 15.6871 55.7437 15.4825C55.7661 15.278 55.8074 15.0671 55.8349 15.014C56.0991 14.5059 56.2643 12.9664 56.07 12.8224C55.9651 12.7443 55.4819 12.7347 55.4819 12.8106C55.4819 12.8462 54.7595 12.8558 53.2825 12.8402C50.8157 12.8143 50.2763 12.7853 50.2763 12.6791C50.2763 12.6403 50.2632 12.2555 50.2473 11.8242L50.2182 11.0393H52.6869C55.382 11.0393 55.4298 11.034 55.4298 10.7267C55.4298 10.6733 55.5 10.4472 55.5859 10.2242C55.6877 9.95992 55.7421 9.7238 55.7421 9.54702C55.7421 9.39773 55.7655 9.26124 55.7943 9.24344C55.8227 9.22595 55.8461 9.15567 55.8461 9.08727C55.8461 9.01919 55.8664 8.9511 55.8908 8.93579C55.9154 8.9208 55.9482 8.78463 55.9639 8.63346C55.9795 8.48229 56.0413 8.21369 56.101 8.03629C56.1606 7.85888 56.2156 7.56623 56.2231 7.3857L56.2365 7.05713L55.9504 7.0234C55.7927 7.00466 54.489 6.98717 53.0532 6.98436L50.4425 6.97905L50.4075 6.44559C50.3881 6.152 50.38 5.75972 50.3894 5.57357L50.4066 5.23532L55.7324 5.20846L55.764 4.90956C55.7814 4.74527 55.8092 4.48885 55.8255 4.33987C55.842 4.19089 55.8886 4.04159 55.9289 4.00817C55.9767 3.96851 56.0023 3.8417 56.0023 3.64556C56.0023 3.47971 56.0241 3.33604 56.0507 3.32667C56.0772 3.31699 56.1328 3.04495 56.1744 2.72169C56.2234 2.34127 56.2796 2.1014 56.3343 2.04081C56.393 1.97647 56.4189 1.84998 56.4189 1.62947C56.4189 1.45113 56.4445 1.29559 56.477 1.27529C56.5142 1.25249 56.5235 1.15442 56.5029 1.00481C56.4779 0.821476 56.4895 0.756511 56.556 0.707788C56.7041 0.59941 56.6101 0.179326 56.4295 0.142159C56.2671 0.108428 45.0001 0.111239 44.8237 0.14497ZM8.37202 4.66282C8.40762 4.70561 8.48102 4.7409 8.53474 4.7409C8.62625 4.7409 8.99886 5.09852 9.04259 5.22844C9.05352 5.26093 9.09038 5.32245 9.12442 5.36556C9.33493 5.63041 9.33118 6.39906 9.11911 6.48026C9.08038 6.49525 9.04883 6.54679 9.04883 6.59489C9.04883 6.72263 8.73494 7.00654 8.51257 7.07993C8.40669 7.11491 8.32017 7.16489 8.32017 7.19143C8.32017 7.31512 6.71886 7.24609 6.57893 7.11648L6.44619 6.99311V5.86497C6.44619 5.03605 6.46337 4.71685 6.51116 4.6625C6.60923 4.551 8.27957 4.55131 8.37202 4.66282ZM8.32017 10.7251C8.32017 10.7845 8.45978 10.8654 8.60627 10.891C8.66373 10.901 8.72464 10.9444 8.74182 10.9875C8.75899 11.0303 8.79991 11.0684 8.8327 11.0721C8.86581 11.0756 8.9161 11.0815 8.94483 11.0849C8.97325 11.0887 8.99668 11.139 8.99668 11.1974C8.99668 11.2555 9.03197 11.3164 9.07476 11.3329C9.11786 11.3495 9.15284 11.3879 9.15284 11.4182C9.15284 11.4488 9.19001 11.5147 9.23561 11.565C9.4886 11.8445 9.26403 13.0051 8.95545 13.0154C8.91828 13.0164 8.82458 13.0817 8.74713 13.1601L8.60627 13.3028L6.60236 13.3409V12.0903C6.60236 11.4026 6.61641 10.8026 6.6339 10.7573C6.67076 10.6614 8.32017 10.6302 8.32017 10.7251Z" fill="#065DAC"/>
<path fill-rule="evenodd" clip-rule="evenodd" d="M47.4442 23.1375C47.4442 23.1578 47.3952 23.2232 47.3354 23.283C47.2756 23.3428 47.2231 23.414 47.2184 23.4416C47.214 23.4692 47.1953 23.5897 47.1768 23.7093C47.1583 23.829 47.112 23.9873 47.0739 24.0612C47.0357 24.1351 47.0044 24.284 47.0044 24.3919C47.0044 24.4998 46.9727 24.6822 46.934 24.7974C46.8953 24.9127 46.8387 25.1607 46.8085 25.349C46.7783 25.5369 46.7343 25.7349 46.7109 25.7888C46.6874 25.8425 46.6563 25.9964 46.6417 26.1307C46.6273 26.2653 46.5713 26.543 46.5176 26.7479C46.4042 27.1796 46.3417 27.7504 46.3877 27.934L46.4197 28.0613H47.7327C49.1639 28.0613 49.2085 28.0712 49.0548 28.3583C48.9927 28.4744 48.9939 40.1797 49.056 40.2785C49.1059 40.3579 53.4156 40.423 53.9771 40.3529L54.2372 40.3204V28.0613L55.3977 28.0572C57.1966 28.0507 57.1565 28.061 57.2177 27.5903C57.2623 27.2488 57.4652 26.2805 57.5848 25.8375C57.6212 25.7032 57.6675 25.4833 57.6875 25.349C57.7291 25.0701 57.7227 25.0959 57.7927 24.9279C57.8218 24.8579 57.8602 24.6599 57.8775 24.4881C57.8948 24.3166 57.9294 24.155 57.9546 24.1295C57.9795 24.104 58 23.8621 58 23.592V23.1009H52.7221C49.8193 23.1009 47.4442 23.1173 47.4442 23.1375ZM1.39552 23.1595C1.3832 23.1809 1.3574 23.2844 1.33863 23.3891C1.31958 23.4938 1.2753 23.6258 1.24011 23.6823C1.20522 23.7389 1.16329 23.8891 1.14716 24.016C1.13104 24.1433 1.09791 24.2861 1.07357 24.3339C0.980325 24.5165 0.917577 24.6684 0.896172 24.7626C0.832251 25.047 0.782989 25.2209 0.75308 25.2695C0.734314 25.2997 0.711445 25.3628 0.702062 25.4097C0.692385 25.4569 0.65192 25.5944 0.611456 25.7155C0.571285 25.8363 0.523492 26.0123 0.505606 26.1064C0.48772 26.2005 0.430834 26.3706 0.378934 26.4846C0.327328 26.5984 0.285107 26.7814 0.285107 26.8907C0.285107 27.0001 0.265751 27.0775 0.242294 27.0631C0.203882 27.0394 0.115039 27.2921 0.071936 27.5481C0.0628462 27.6018 0.0390953 27.683 0.0194497 27.7285C-0.0676359 27.9287 0.231444 28.1724 0.700299 28.2838C0.780934 28.3029 0.875644 28.3598 0.91083 28.4099C0.946016 28.46 1.02782 28.5011 1.09233 28.5011C1.31606 28.5011 1.31283 28.4169 1.31166 34.2871C1.31049 39.9685 1.31342 40.0706 1.48143 40.1926C1.55884 40.2489 8.64181 40.236 8.64181 40.1797C8.64181 40.1533 8.74619 40.1319 8.87374 40.1316C9.1435 40.1313 9.64373 39.9894 9.8918 39.8427C9.9868 39.7867 10.1017 39.7407 10.1472 39.7404C10.1926 39.7398 10.2771 39.7123 10.3346 39.6791C10.392 39.646 10.59 39.5319 10.7744 39.4255C10.9588 39.3191 11.1386 39.2035 11.1743 39.1689C11.2098 39.134 11.2811 39.1056 11.333 39.1056C11.3849 39.1056 11.4218 39.0824 11.4151 39.054C11.4083 39.0255 11.5019 38.9458 11.6227 38.8769C11.8977 38.72 12.0692 38.5866 12.0625 38.5347C12.0598 38.5127 12.0956 38.4869 12.142 38.4772C12.2551 38.4541 12.3557 38.3488 12.3557 38.2541C12.3557 38.2119 12.3777 38.1773 12.4047 38.1773C12.4314 38.1773 12.544 38.0893 12.6548 37.9817C12.7656 37.8741 12.8753 37.7861 12.8987 37.7861C12.9219 37.7861 12.9732 37.709 13.0128 37.6146C13.0521 37.5202 13.1184 37.4299 13.16 37.4137C13.2013 37.3979 13.2354 37.3536 13.2354 37.3152C13.2354 37.2768 13.2685 37.2328 13.3087 37.2176C13.3491 37.202 13.382 37.1501 13.382 37.102C13.382 37.054 13.4166 37.0015 13.4585 36.9853C13.5004 36.9692 13.5213 36.934 13.5045 36.907C13.4878 36.8798 13.4972 36.8578 13.5256 36.8578C13.5544 36.8578 13.5775 36.8027 13.5775 36.7355C13.5775 36.6657 13.6057 36.6132 13.6435 36.6132C13.6796 36.6132 13.7491 36.5253 13.7975 36.418C13.8458 36.3104 13.908 36.2224 13.9353 36.2224C13.9625 36.2224 13.971 36.2086 13.954 36.1916C13.937 36.1746 13.9552 36.1148 13.9948 36.0585C14.0341 36.0022 14.0663 35.9157 14.0663 35.8658C14.0663 35.8163 14.0992 35.7427 14.1396 35.7022C14.1798 35.662 14.213 35.5767 14.213 35.5128C14.213 35.4489 14.2411 35.3788 14.2757 35.3574C14.31 35.336 14.3684 35.1973 14.4047 35.0495C14.4414 34.9017 14.49 34.7683 14.5129 34.7534C14.5361 34.7384 14.5789 34.5956 14.6082 34.4358C14.6375 34.276 14.6789 34.1235 14.7 34.0966C14.7399 34.0455 14.7531 33.9825 14.8733 33.2659C15.0263 32.3519 15.0539 31.9851 15.0269 31.2133C15.012 30.7832 14.9853 30.3765 14.9677 30.3091C14.9501 30.2419 14.909 30 14.8768 29.7716C14.8442 29.5432 14.7835 29.2901 14.7419 29.2095C14.7 29.1289 14.6501 28.9773 14.6311 28.8726C14.6123 28.7679 14.5598 28.626 14.5147 28.5571C14.4695 28.4882 14.4402 28.431 14.449 28.4298C14.4874 28.4248 14.3889 28.1134 14.2707 27.8657C14.1998 27.7179 14.147 27.5804 14.1531 27.5601C14.159 27.5402 14.1385 27.5235 14.1071 27.5235C14.0757 27.5235 14.0637 27.51 14.0804 27.4933C14.0968 27.4766 14.0361 27.3467 13.9452 27.2048C13.8543 27.0626 13.7931 26.9332 13.8092 26.9174C13.825 26.9013 13.8171 26.8884 13.7913 26.8884C13.7658 26.8884 13.6805 26.7784 13.6019 26.6438C13.5236 26.5095 13.4418 26.3996 13.4207 26.3996C13.3996 26.3996 13.382 26.3776 13.382 26.3506C13.382 26.3049 13.3119 26.2175 13.0864 25.9823C13.0339 25.9278 12.9911 25.8563 12.9911 25.8237C12.9911 25.7909 12.9647 25.7642 12.9325 25.7642C12.9002 25.7642 12.7829 25.6709 12.6721 25.5566C12.4047 25.2813 12.1358 25.0396 11.8672 24.8335C11.7461 24.7406 11.6361 24.652 11.6227 24.6365C11.6092 24.6209 11.5324 24.5755 11.4517 24.5356C11.2556 24.4383 11.077 24.3348 10.9876 24.267C10.9471 24.2365 10.8371 24.1949 10.743 24.1749C10.6492 24.1547 10.5451 24.0999 10.5122 24.053C10.4791 24.0061 10.3765 23.9533 10.2835 23.9357C10.1909 23.9184 10.1073 23.8814 10.0982 23.8536C10.0888 23.826 9.98885 23.7908 9.87567 23.7756C9.76249 23.7603 9.68186 23.729 9.69622 23.7055C9.71088 23.682 9.67745 23.663 9.62204 23.663C9.56662 23.663 9.52147 23.6387 9.52147 23.6087C9.52147 23.5756 9.47484 23.5662 9.40212 23.5844C9.33674 23.6008 9.2693 23.5923 9.25258 23.5653C9.23616 23.5384 9.15963 23.5164 9.08281 23.5164C9.00599 23.5164 8.84178 23.473 8.71775 23.4196C8.59402 23.3665 8.38906 23.3091 8.26239 23.2921C8.13601 23.2748 7.97709 23.2361 7.90935 23.2059C7.7645 23.1408 1.43188 23.0956 1.39552 23.1595ZM32.0136 23.2396C31.9532 23.2701 31.9037 23.3284 31.9034 23.3692C31.9031 23.4096 31.8702 23.5058 31.8301 23.5829C31.7899 23.6601 31.757 23.7727 31.757 23.8333C31.757 23.894 31.7239 24.0374 31.6837 24.1515C31.6433 24.2658 31.6104 24.4427 31.6104 24.5447C31.6104 24.6464 31.5876 24.7376 31.5594 24.7467C31.5316 24.7561 31.487 24.9174 31.4606 25.1053C31.4339 25.293 31.3688 25.563 31.316 25.705C31.263 25.8472 31.2196 26.0164 31.2196 26.0809C31.2196 26.1454 31.2017 26.2093 31.18 26.2228C31.158 26.2363 31.1348 26.3512 31.1284 26.4782C31.1216 26.6054 31.0955 26.7479 31.0703 26.7954C31.0448 26.8429 31.024 26.9547 31.0237 27.0438C31.0237 27.1329 30.9797 27.2781 30.9261 27.366C30.7554 27.6458 30.8698 28.0613 31.1172 28.0613C31.1955 28.0613 32.0253 28.4202 32.0421 28.4612C32.0511 28.4829 32.1007 28.5011 32.152 28.5011C32.2438 28.5011 32.2458 28.6204 32.252 34.3408C32.2552 37.553 32.2608 40.2081 32.264 40.2418C32.2799 40.3996 37.3766 40.4356 37.476 40.2785C37.5029 40.2357 37.5226 39.3915 37.5229 38.2383C37.5238 36.2074 37.5463 35.9907 37.7155 36.4056C37.7891 36.5866 37.9205 36.8074 38.0246 36.9255C38.0715 36.9789 38.1102 37.0686 38.1102 37.1249C38.1102 37.1809 38.1425 37.273 38.1817 37.329C38.221 37.3853 38.2395 37.4451 38.2225 37.4621C38.2055 37.4791 38.2172 37.4929 38.2486 37.4929C38.28 37.4929 38.3055 37.5439 38.3055 37.6061C38.3055 37.6679 38.3456 37.7618 38.3943 37.8143C38.4723 37.8978 38.5958 38.2374 38.6101 38.4072C38.6128 38.4397 38.6327 38.4552 38.6547 38.4418C38.6899 38.4198 38.7348 38.5057 38.9626 39.0323C38.9972 39.1129 39.0546 39.2449 39.0895 39.3255C39.1247 39.4061 39.1494 39.4894 39.1444 39.5102C39.1394 39.5313 39.1778 39.5941 39.2294 39.6495C39.2813 39.7052 39.3382 39.809 39.3561 39.8803C39.3737 39.9515 39.4171 40.0427 39.452 40.0832C39.4872 40.1234 39.5311 40.2072 39.5502 40.2691L39.5845 40.3817L42.6322 40.3667C44.5815 40.3573 45.6966 40.3342 45.7259 40.3031C45.8268 40.1952 45.8356 40.0418 45.7462 39.9524C45.5717 39.7782 45.3917 39.5017 45.3917 39.4082C45.3917 39.356 45.3597 39.2868 45.321 39.2543C45.282 39.222 45.2251 39.1203 45.1946 39.0279C45.1644 38.9358 45.1234 38.8704 45.104 38.8825C45.0656 38.9059 44.7563 38.3268 44.7563 38.2312C44.7563 38.1993 44.7179 38.1312 44.6709 38.0799C44.6237 38.0286 44.5085 37.8371 44.4144 37.6545C44.3203 37.4715 44.2317 37.3108 44.2179 37.2976C44.2039 37.2841 44.1643 37.2182 44.13 37.151C44.0956 37.0839 44.0135 36.9408 43.9479 36.8332C43.8819 36.7258 43.7834 36.5452 43.7288 36.432C43.6743 36.3189 43.6083 36.2133 43.5822 36.1972C43.5561 36.181 43.5347 36.1195 43.5347 36.0602C43.5347 36.001 43.4907 35.9254 43.4368 35.8916C43.3831 35.8582 43.3391 35.8013 43.3391 35.7653C43.3391 35.7295 43.2843 35.6362 43.2172 35.558C43.1497 35.48 43.0949 35.3984 43.0949 35.377C43.0949 35.3556 43.0524 35.2504 43.0005 35.1431C42.9075 34.9507 42.9075 34.9475 43.0005 34.8894C43.0524 34.8569 43.0949 34.8015 43.0949 34.766C43.0949 34.7308 43.1169 34.7152 43.1436 34.732C43.1706 34.7484 43.1925 34.7284 43.1925 34.6874C43.1925 34.6466 43.2694 34.5361 43.3635 34.442C43.4576 34.3478 43.5347 34.259 43.5347 34.2443C43.5347 34.2297 43.6007 34.1488 43.6813 34.0643C43.762 33.9801 43.8279 33.8819 43.8279 33.8461C43.8279 33.8107 43.8945 33.747 43.976 33.7048C44.0575 33.6626 44.1127 33.6095 44.0989 33.5869C44.0848 33.5641 44.1059 33.5183 44.1461 33.4852C44.186 33.4521 44.2188 33.3978 44.2188 33.3647C44.2188 33.3316 44.2728 33.2462 44.3387 33.1753C44.4044 33.104 44.4469 33.046 44.4331 33.046C44.4191 33.046 44.4531 32.982 44.5088 32.904C44.5642 32.8258 44.6105 32.7325 44.6114 32.6961C44.6123 32.6601 44.6451 32.5877 44.6847 32.5355C44.724 32.4836 44.7563 32.4009 44.7563 32.3522C44.7563 32.3038 44.7865 32.2639 44.8234 32.2639C44.8639 32.2639 44.9029 32.1862 44.9216 32.0684C44.9389 31.9611 44.9747 31.8731 45.0014 31.8731C45.0278 31.8731 45.0495 31.8309 45.0495 31.7793C45.0495 31.7277 45.0806 31.6233 45.1184 31.547C45.2451 31.2919 45.3917 30.7624 45.3917 30.5592C45.3917 30.4486 45.4096 30.358 45.4315 30.358C45.5881 30.358 45.5946 28.5495 45.4398 28.0099C45.4134 27.9176 45.3917 27.7868 45.3914 27.7194C45.3911 27.6519 45.3574 27.5323 45.3163 27.4534C45.275 27.3745 45.2196 27.213 45.1932 27.0942C45.1665 26.9758 45.1122 26.8465 45.0727 26.8069C45.0331 26.767 45.0008 26.6952 45.0008 26.6471C45.0008 26.5987 44.9557 26.5022 44.9008 26.4324C44.8457 26.3624 44.8044 26.2911 44.8085 26.2741C44.8129 26.2568 44.7369 26.1565 44.6399 26.0507C44.5425 25.9451 44.4631 25.8155 44.4631 25.7627C44.4631 25.6627 44.3032 25.471 44.2197 25.471C44.1933 25.471 44.1587 25.4188 44.1426 25.3551C44.1267 25.2915 44.0602 25.2106 43.9951 25.176C43.93 25.1411 43.8757 25.0886 43.8746 25.0596C43.8731 25.0306 43.7863 24.9408 43.6813 24.8602C43.5761 24.7796 43.4893 24.686 43.4881 24.6526C43.4861 24.5984 43.4259 24.572 43.3321 24.584C43.3148 24.586 43.2424 24.5338 43.1708 24.4676C43.0993 24.4013 43.0116 24.3471 42.9761 24.3471C42.9404 24.3471 42.8838 24.3139 42.8504 24.2738C42.8169 24.2333 42.7609 24.2005 42.726 24.2005C42.6911 24.2005 42.597 24.1456 42.5173 24.0782C42.4375 24.011 42.3381 23.9562 42.2965 23.9562C42.2548 23.9562 42.2085 23.936 42.193 23.9111C42.1777 23.8864 42.061 23.8269 41.9338 23.7791C41.8062 23.7313 41.691 23.6797 41.6775 23.6642C41.6488 23.6307 41.1356 23.4689 41.0723 23.473C41.0482 23.4745 41.0136 23.4513 40.9952 23.4214C40.9767 23.3915 40.8424 23.3534 40.6964 23.3366C40.5507 23.3199 40.3911 23.2786 40.3419 23.2449C40.2181 23.1604 32.1802 23.1551 32.0136 23.2396ZM17.8591 23.307C17.8591 23.307 17.7811 23.3229 17.6987 23.3293C17.555 23.3402 17.5457 23.3548 17.46 23.7093C17.4111 23.9122 17.3647 24.1002 17.3568 24.1272C17.3486 24.1541 17.3287 24.2421 17.312 24.3227C17.2953 24.4034 17.2398 24.5588 17.1888 24.6678C17.1378 24.7772 17.0962 24.9376 17.0962 25.0247C17.0962 25.1115 17.0651 25.2428 17.027 25.3164C16.9891 25.3897 16.9434 25.5372 16.9255 25.6437C16.9076 25.7504 16.8587 25.9255 16.817 26.0331C16.7754 26.1407 16.732 26.3055 16.7208 26.3996C16.7094 26.4937 16.6722 26.6145 16.6376 26.6685C16.469 26.9303 16.4092 27.598 16.5341 27.8167C16.5725 27.8842 16.6047 27.9185 16.6056 27.8932C16.608 27.8311 16.8029 28.0434 16.8029 28.1079C16.8029 28.136 16.8264 28.1589 16.8554 28.1589C16.9214 28.1589 17.0152 28.2518 17.0903 28.392C17.1223 28.4518 17.1806 28.5011 17.2202 28.5011C17.2709 28.5011 17.2917 28.5574 17.2917 28.6964C17.2917 28.804 17.2724 28.8919 17.2492 28.8919C17.2014 28.8919 17.1096 29.2133 17.0791 29.4854C17.0683 29.5833 17.0407 29.6933 17.0182 29.7297C16.9663 29.8126 16.9463 29.8915 16.9149 30.1381C16.9012 30.2457 16.8581 30.3701 16.8188 30.4143C16.7798 30.4586 16.7428 30.6017 16.7367 30.7319C16.7308 30.8624 16.6795 31.0679 16.6229 31.1887C16.5343 31.3787 16.4652 31.6461 16.449 31.8608C16.4467 31.8945 16.4291 31.9218 16.4103 31.9218C16.3913 31.9218 16.349 32.0593 16.3165 32.2273C16.2532 32.5528 16.1194 33.0134 15.972 33.4125C15.9221 33.5468 15.8676 33.7614 15.8506 33.8893C15.8336 34.0168 15.7881 34.1819 15.7494 34.2558C15.711 34.3294 15.6793 34.4405 15.6793 34.5027C15.6787 34.6566 15.5277 35.1143 15.4626 35.1586C15.4339 35.1785 15.4239 35.195 15.4407 35.1952C15.4574 35.1958 15.4286 35.3445 15.3767 35.526C15.2559 35.9471 15.1512 36.364 15.073 36.7355C15.0389 36.8968 14.9888 37.0727 14.9618 37.1264C14.9346 37.1803 14.8873 37.2727 14.8566 37.3322C14.8261 37.3917 14.8135 37.4733 14.829 37.5134C14.8598 37.5941 14.761 37.9412 14.6947 37.9843C14.6545 38.0107 14.6205 38.2069 14.6094 38.479C14.6062 38.5511 14.5745 38.6394 14.5384 38.6754C14.5026 38.7112 14.4607 38.8282 14.4458 38.9355C14.4305 39.0426 14.3903 39.1962 14.3563 39.2768C14.3223 39.3575 14.2898 39.4399 14.2842 39.4601C14.2786 39.48 14.2695 39.502 14.264 39.5088C14.2584 39.5155 14.2464 39.5762 14.237 39.6434C14.2279 39.7105 14.1933 39.8688 14.1599 39.9955C14.0537 40.4004 13.8989 40.3764 16.6065 40.3764C17.9166 40.3764 19.0883 40.3626 19.21 40.3459C19.4668 40.3107 19.5243 40.236 19.6099 39.826C19.6313 39.7249 19.6683 39.6299 19.6926 39.6149C19.7169 39.6 19.7257 39.5698 19.712 39.5478C19.6985 39.5258 19.7202 39.4806 19.76 39.4472C19.8002 39.4141 19.8328 39.3273 19.8328 39.2546C19.8328 39.1815 19.8495 39.1056 19.8694 39.0854C19.8896 39.0651 19.9069 39.0341 19.9081 39.0162C19.909 38.9983 19.9492 38.9027 19.9973 38.8042C20.0453 38.7054 20.0893 38.5954 20.0946 38.5596C20.1002 38.5241 20.1559 38.3896 20.2183 38.2608L20.3321 38.0268L22.5547 38.0409C25.1022 38.057 24.9186 38.0201 24.9843 38.5285C25.021 38.8141 25.1119 39.1056 25.1638 39.1056C25.1819 39.1056 25.1984 39.1953 25.1998 39.3053C25.2013 39.4149 25.2368 39.5572 25.2787 39.6211C25.3209 39.6853 25.3552 39.8002 25.3552 39.8768C25.3552 39.9533 25.3998 40.1081 25.4543 40.221L25.5532 40.426L28.3009 40.4133L31.0483 40.4007L31.0331 40.1565C31.0246 40.0219 30.9879 39.8662 30.9519 39.8105C30.9158 39.7545 30.8715 39.5897 30.8539 39.444C30.8363 39.2982 30.7815 39.0909 30.7323 38.9836C30.683 38.876 30.6282 38.6834 30.6103 38.5555C30.5927 38.428 30.5466 38.2629 30.5082 38.189C30.4695 38.1154 30.4382 37.9931 30.4379 37.9175C30.4376 37.8418 30.4141 37.7357 30.3854 37.682C30.3566 37.6284 30.3235 37.5474 30.3118 37.502C30.174 36.9675 29.9441 36.152 29.8819 35.9781C29.8388 35.857 29.8033 35.6867 29.803 35.5993C29.8025 35.5119 29.779 35.4404 29.7506 35.4404C29.7221 35.4404 29.7124 35.4184 29.7289 35.3917C29.7456 35.3647 29.7403 35.3427 29.7171 35.3427C29.6805 35.3427 29.5547 34.8759 29.5312 34.6531C29.5268 34.6097 29.5063 34.5472 29.4861 34.5144C29.4456 34.4487 29.3571 34.1496 29.211 33.5834C29.1588 33.382 29.1075 33.1838 29.0973 33.1436C29.0867 33.1031 29.043 33.0043 29.0005 32.9237C28.958 32.8431 28.9231 32.6973 28.9228 32.5997C28.9228 32.502 28.8897 32.3953 28.8492 32.3616C28.8035 32.3238 28.7759 32.2159 28.7756 32.0748C28.7756 31.9502 28.7404 31.7825 28.6979 31.7018C28.6551 31.6212 28.6114 31.5004 28.6003 31.4333C28.5894 31.3661 28.568 31.2342 28.5525 31.14C28.5369 31.0459 28.4965 30.9248 28.4625 30.8712C28.4284 30.8175 28.3865 30.6744 28.3695 30.5536C28.3246 30.2361 28.3073 30.168 28.1971 29.8692C28.0725 29.5317 27.9587 29.1189 27.9229 28.8758C27.908 28.7729 27.8628 28.6559 27.8227 28.6157C27.7825 28.5756 27.7496 28.4984 27.7496 28.4445C27.7496 28.3554 27.6194 27.8302 27.5025 27.447C27.4772 27.3643 27.4564 27.2505 27.4564 27.1942C27.4564 27.1379 27.4365 27.0845 27.4121 27.0758C27.3878 27.0667 27.3547 26.9758 27.3388 26.8737C27.3098 26.6884 27.1485 26.1328 27.0623 25.9208C27.0371 25.8592 27.0166 25.7472 27.0166 25.6724C27.0166 25.5976 27.0011 25.5208 26.9823 25.5018C26.9632 25.483 26.9401 25.4082 26.9304 25.3361C26.9207 25.264 26.8893 25.1766 26.8609 25.1423C26.8325 25.1083 26.8263 25.0801 26.8471 25.0801C26.8682 25.0801 26.8506 25.0417 26.8081 24.9945C26.7656 24.9476 26.7158 24.7772 26.697 24.6159C26.6785 24.4547 26.6471 24.3116 26.6272 24.2981C26.5451 24.2421 26.487 24.0588 26.4542 23.7498C26.4349 23.5692 26.3912 23.3979 26.3569 23.3698C26.3047 23.3264 17.9019 23.2645 17.8591 23.307ZM7.41997 28.3489C7.41997 28.3729 7.49738 28.407 7.59209 28.4246C7.84661 28.4723 8.73065 29.2274 8.66204 29.3385C8.64943 29.359 8.68345 29.3995 8.73798 29.4288C8.79252 29.4579 8.83709 29.5238 8.83709 29.5748C8.83709 29.6262 8.85674 29.6801 8.88078 29.6951C9.00305 29.7704 9.25464 30.4196 9.27047 30.7002C9.27282 30.7404 9.30947 30.9934 9.35199 31.262C9.46106 31.9517 9.32354 33.1829 9.12093 33.3295C9.07225 33.3647 9.03267 33.448 9.03267 33.5145C9.03267 33.5811 8.99954 33.6479 8.95937 33.6635C8.9189 33.679 8.88606 33.7104 8.88606 33.733C8.88606 33.9998 8.31927 34.454 7.6434 34.7293C7.37042 34.8405 6.62741 34.8888 6.56378 34.7994C6.53328 34.7563 6.52068 33.5673 6.52918 31.5186L6.54237 28.3055H6.98132C7.22264 28.3055 7.41997 28.3252 7.41997 28.3489ZM39.1851 28.4665C39.2526 28.4809 39.357 28.4946 39.4174 28.497C39.4807 28.4993 39.5273 28.5322 39.5273 28.5744C39.5273 28.6146 39.5446 28.6477 39.5657 28.6477C39.6343 28.6477 39.9238 28.9142 39.9369 28.9896C39.944 29.03 39.9868 29.1482 40.032 29.2523C40.1366 29.4942 40.1457 30.0909 40.0451 30.1296C40.0073 30.144 39.9619 30.2214 39.9446 30.3011C39.927 30.3809 39.859 30.4868 39.7933 30.536C39.7276 30.5853 39.6739 30.6512 39.6739 30.6826C39.6739 30.7342 39.4663 30.8369 39.2831 30.8756C39.2227 30.8882 37.9551 30.9058 37.6581 30.8978C37.5789 30.8958 37.5724 30.8028 37.5724 29.647V28.3985L38.3178 28.4193C38.7277 28.4307 39.118 28.4518 39.1851 28.4665ZM22.5653 29.4417C22.5984 29.5963 22.6433 29.7226 22.665 29.7226C22.6866 29.7226 22.7142 29.8563 22.7259 30.02C22.7377 30.1833 22.7679 30.3316 22.7928 30.3498C22.818 30.3677 22.8884 30.5694 22.9494 30.7979C23.0104 31.0263 23.1051 31.3673 23.1599 31.5552C23.2147 31.7435 23.2831 32.0238 23.3121 32.1783C23.3411 32.3329 23.3839 32.4595 23.4071 32.4595C23.4303 32.4595 23.4493 32.5475 23.4493 32.6548C23.4493 32.7624 23.4663 32.8504 23.4868 32.8504C23.5382 32.8504 23.6575 33.3764 23.62 33.4374C23.5818 33.499 21.5457 33.5013 21.4484 33.4395C21.3947 33.4054 21.3895 33.3679 21.4273 33.2814C21.4545 33.219 21.4827 33.06 21.4897 32.9278C21.4971 32.7956 21.5314 32.6416 21.5663 32.5856C21.6014 32.5296 21.6575 32.3299 21.6912 32.1417C21.7249 31.9537 21.775 31.7447 21.8023 31.6775C21.8299 31.6104 21.8486 31.5385 21.8442 31.5183C21.8398 31.4978 21.8838 31.311 21.9419 31.1028C21.9999 30.8949 22.0624 30.6035 22.0812 30.4557C22.0996 30.3079 22.1515 30.1044 22.1964 30.0038C22.241 29.903 22.2621 29.8206 22.2427 29.8206C22.2237 29.8206 22.2342 29.7942 22.2665 29.7619C22.2987 29.7297 22.3251 29.6496 22.3251 29.5842C22.3251 29.4153 22.433 29.077 22.4723 29.1224C22.4905 29.1435 22.5321 29.2872 22.5653 29.4417Z" fill="#33A44C"/>
</svg>
