<svg width="58" height="14" viewBox="0 0 58 14" fill="none" xmlns="http://www.w3.org/2000/svg">
<path d="M2.73314 0.01297L1.85486 4.48598H13.7174C13.7174 4.48598 13.2777 0.372442 8.72562 0.01297H2.73314Z" fill="#0E2C53"/>
<path d="M0.878407 8.81362L0.00012207 13.1668H6.75234C6.97542 13.1668 7.19722 13.1477 7.41774 13.1056C8.5293 12.8953 11.7403 12.0208 13.1808 8.81235H0.878407V8.81362Z" fill="#0E2C53"/>
<path d="M29.0333 0.0116577L28.155 4.48467H40.0176C40.0176 4.48467 39.5778 0.37113 35.0258 0.0116577H29.0346H29.0333Z" fill="#0E2C53"/>
<path d="M27.1798 8.81234L26.3015 13.1655H33.0537C33.2768 13.1655 33.4986 13.1464 33.7191 13.1043C34.8307 12.894 38.0417 12.0195 39.4822 8.81107H27.1811L27.1798 8.81234Z" fill="#0E2C53"/>
<path d="M50.9113 13.2216L51.7896 8.74863H39.927C39.927 8.74863 40.3668 12.8622 44.9188 13.2216H50.91H50.9113Z" fill="#0E2C53"/>
<path d="M52.7648 4.41968L53.6431 0.0664978H46.8908C46.6678 0.0664978 46.446 0.0856181 46.2254 0.127684C45.1139 0.338014 41.9028 1.21248 40.4624 4.42096H52.7635L52.7648 4.41968Z" fill="#0E2C53"/>
<path d="M15.1617 0.000213623L14.2834 4.4745L27.6171 4.51146L28.54 0.0180597L15.1617 0.000213623Z" fill="#0E2C53"/>
<path d="M17.6117 8.79449H22.3639L21.3785 13.2076H16.7219L17.6117 8.79449Z" fill="#0E2C53"/>
<path d="M53.2479 4.40311H58.0001L57.0135 8.8162H52.3582L53.2479 4.40311Z" fill="#DC0032"/>
</svg>
