<svg width="44" height="44" viewBox="0 0 44 44" fill="none" xmlns="http://www.w3.org/2000/svg">
<circle cx="22" cy="22" r="20.6" stroke="#1900FF" stroke-width="1.2"/>
<path d="M29.8018 10.2963H13.3333C12.982 10.2963 12.6963 10.582 12.6963 10.9363V33.8696C12.6963 34.224 12.982 34.5097 13.3333 34.5097H29.8018C30.1561 34.5097 30.4418 34.224 30.4418 33.8696V10.9363C30.4418 10.582 30.1561 10.2963 29.8018 10.2963ZM19.8619 21.2893L17.5149 24.3012C17.3924 24.4564 17.2063 24.548 17.0102 24.548C16.9953 24.548 16.9774 24.548 16.9614 24.545C16.7444 24.5271 16.5533 24.4047 16.4518 24.2166L15.331 22.188C15.1598 21.8774 15.2723 21.4902 15.5828 21.319C15.8914 21.1478 16.2806 21.2603 16.4518 21.5689L17.1018 22.7514L18.8546 20.5038C19.0716 20.2231 19.4718 20.1753 19.7515 20.3913C20.0302 20.6083 20.0809 21.0116 19.8619 21.2893ZM19.8619 27.4935L17.5149 30.5054C17.3924 30.6607 17.2063 30.7523 17.0102 30.7523C16.9953 30.7523 16.9774 30.7523 16.9614 30.7493C16.7444 30.7313 16.5533 30.6089 16.4518 30.4208L15.331 28.3922C15.1598 28.0817 15.2723 27.6945 15.5828 27.5233C15.8914 27.3521 16.2806 27.4645 16.4518 27.7731L17.1018 28.9556L18.8546 26.708C19.0716 26.4273 19.4718 26.3796 19.7515 26.5956C20.0302 26.8136 20.0809 27.2158 19.8619 27.4935ZM19.8619 15.0843L17.5149 18.0962C17.3924 18.2515 17.2063 18.343 17.0102 18.343C16.9953 18.343 16.9774 18.343 16.9614 18.34C16.7474 18.3251 16.5563 18.1997 16.4518 18.0136L15.331 15.99C15.1598 15.6814 15.2723 15.2922 15.5809 15.121C15.8914 14.9478 16.2786 15.0623 16.4498 15.3709L17.1018 16.5454L18.8546 14.2979C19.0716 14.0202 19.4718 13.9694 19.7515 14.1854C20.0302 14.4044 20.0809 14.8066 19.8619 15.0843ZM22.8183 20.5251H27.2546C27.606 20.5251 27.8946 20.8107 27.8946 21.1651C27.8946 21.5165 27.607 21.8051 27.2546 21.8051L22.8183 21.8041C22.4669 21.8041 22.1813 21.5165 22.1813 21.1641C22.1813 20.8107 22.4659 20.5251 22.8183 20.5251ZM22.1813 17.4444C22.1813 17.09 22.4669 16.8043 22.8183 16.8043H25.038C25.3893 16.8043 25.675 17.09 25.675 17.4444C25.675 17.7987 25.3893 18.0844 25.038 18.0844H22.8183C22.4659 18.0834 22.1813 17.7987 22.1813 17.4444ZM22.8183 23.0095H25.038C25.3893 23.0095 25.675 23.2952 25.675 23.6495C25.675 24.0039 25.3893 24.2896 25.038 24.2896H22.8183C22.4669 24.2896 22.1813 24.0039 22.1813 23.6495C22.1813 23.2952 22.4659 23.0095 22.8183 23.0095ZM22.8183 26.7293H27.2546C27.606 26.7293 27.8946 27.015 27.8946 27.3693C27.8946 27.7207 27.607 28.0093 27.2546 28.0093H22.8183C22.4669 28.0093 22.1813 27.7217 22.1813 27.3693C22.1813 27.015 22.4659 26.7293 22.8183 26.7293ZM22.8183 29.2137H25.038C25.3893 29.2137 25.675 29.4994 25.675 29.8538C25.675 30.2051 25.3893 30.4938 25.038 30.4938H22.8183C22.4669 30.4938 22.1813 30.2061 22.1813 29.8538C22.1813 29.4994 22.4659 29.2137 22.8183 29.2137ZM27.2536 15.599H22.8183C22.4669 15.599 22.1813 15.3113 22.1813 14.959C22.1813 14.6046 22.4669 14.319 22.8183 14.319H27.2546C27.606 14.319 27.8946 14.6046 27.8946 14.959C27.8936 15.3113 27.606 15.599 27.2536 15.599Z" fill="#5D4BFE"/>
</svg>
