<svg width="44" height="44" viewBox="0 0 44 44" fill="none" xmlns="http://www.w3.org/2000/svg">
<circle cx="22" cy="22" r="20.6" stroke="#1900FF" stroke-width="1.2"/>
<path d="M25.8093 15.3125H33.0281L28.6634 9.125H24.6992L25.7305 15.3125H25.8093Z" fill="#5D4BFE"/>
<path d="M18.7038 15.3125L20.2507 9.125H15.7367L11.3721 15.3125H18.5908H18.7038Z" fill="#5D4BFE"/>
<path d="M19.6221 19.5053L20.6534 18.8178L22.2003 19.849L23.7471 18.8178L24.7783 19.5053V16.3438H19.6221V19.5053Z" fill="#5D4BFE"/>
<path d="M20.1377 25.1094H14.9814V30.2656H20.1377V25.1094ZM17.0439 29.2344H16.0127V26.1406H17.0439V29.2344ZM19.1064 29.2344H18.0752V26.1406H19.1064V29.2344Z" fill="#5D4BFE"/>
<path d="M24.685 15.3125L23.6537 9.125H21.3135L19.7666 15.3125H24.685Z" fill="#5D4BFE"/>
<path d="M25.8096 21.4322L23.7471 20.0572L22.2004 21.0885L20.6534 20.0572L18.5908 21.4322V16.3438H11.3721V33.875H33.0283V16.3438H25.8096V21.4322ZM21.1689 31.2969H13.9502V24.0781H21.1689V31.2969ZM30.4502 31.2969H22.7158V30.2656H30.4502V31.2969ZM30.4502 29.2344H22.7158V28.2031H30.4502V29.2344Z" fill="#5D4BFE"/>
</svg>
