<svg width="44" height="44" viewBox="0 0 44 44" fill="none" xmlns="http://www.w3.org/2000/svg">
<circle cx="22" cy="22" r="20.6" stroke="#1900FF" stroke-width="1.2"/>
<path fill-rule="evenodd" clip-rule="evenodd" d="M28.1479 17.7811H34.0859C34.3096 17.7811 34.4913 17.867 34.6321 18.0034C34.7636 18.1323 34.8481 18.303 34.8889 18.4782L35.9884 23.2156C35.9981 23.2571 36.0016 23.2985 35.9993 23.3388L35.9363 27.5577C35.9335 27.806 35.7262 28.0055 35.4725 28.0055L34.1341 28.007C33.8991 28.007 33.7042 27.8364 33.6731 27.6151C33.5727 27.0856 33.2836 26.6204 32.877 26.2878C32.4743 25.9589 31.9534 25.7601 31.3853 25.7601C30.8161 25.7601 30.2956 25.9589 29.8925 26.2878C29.482 26.6238 29.191 27.0951 29.0937 27.6303C29.0544 27.8516 28.8576 28.0067 28.6354 28.0067L19.9203 28.007C19.6849 28.007 19.49 27.8364 19.4588 27.6151C19.3585 27.0856 19.0694 26.6204 18.6632 26.2881C18.2601 25.9593 17.7395 25.7605 17.1707 25.7605C16.6019 25.7605 16.0813 25.9589 15.6783 26.2878C15.2686 26.6238 14.9776 27.0947 14.8799 27.6303C14.8406 27.8516 14.6437 28.0067 14.4216 28.0067L11.8063 28.007C11.5495 28.007 11.3409 27.8037 11.3409 27.5524V23.0856H9.11468C8.83689 23.0856 8.61162 22.8655 8.61162 22.5945C8.61162 22.3231 8.83689 22.103 9.11468 22.103H11.3409V20.5468H10.2768C9.99942 20.5468 9.77376 20.3263 9.77376 20.0553C9.77376 19.7839 9.99942 19.5638 10.2768 19.5638H11.3409V18.008H8.50307C8.22527 18.008 8 17.7875 8 17.5165C8 17.2451 8.22527 17.025 8.50307 17.025H11.3409V14.4554C11.3409 14.2041 11.5495 14 11.8063 14H27.0391C27.2958 14 27.5048 14.2041 27.5048 14.4554V24.6673H27.6822V18.2357C27.6822 17.9848 27.8907 17.7811 28.1479 17.7811ZM11.3409 23.0856H19.758C20.0358 23.0856 20.2611 22.8655 20.2611 22.5945C20.2611 22.3231 20.0358 22.103 19.758 22.103H11.3409V23.0856ZM11.3409 20.5468H20.9202C21.198 20.5468 21.4232 20.3263 21.4232 20.0553C21.4232 19.7839 21.198 19.5638 20.9202 19.5638H11.3409V20.5468ZM11.3409 18.008H19.1464C19.4238 18.008 19.6491 17.7875 19.6491 17.5165C19.6491 17.2451 19.4238 17.025 19.1464 17.025H11.3409V18.008ZM31.3853 26.0688C31.9386 26.0688 32.4409 26.2889 32.8054 26.6447L32.8086 26.6477C33.1719 27.0035 33.3968 27.4943 33.3968 28.034C33.3968 28.5746 33.1716 29.0653 32.8074 29.4218L32.8043 29.4249C32.4401 29.7795 31.9382 29.9992 31.3853 29.9992C30.8294 29.9992 30.3263 29.7792 29.9621 29.4237L29.9329 29.3922C29.5863 29.0391 29.3727 28.5605 29.3727 28.034C29.3727 27.4931 29.5987 27.0016 29.9633 26.6458C30.3263 26.2889 30.8294 26.0688 31.3853 26.0688ZM31.3853 27.2996C31.8005 27.2996 32.137 27.6284 32.137 28.034C32.137 28.44 31.8005 28.7688 31.3853 28.7688C30.9698 28.7688 30.6333 28.44 30.6333 28.034C30.6333 27.6284 30.9698 27.2996 31.3853 27.2996ZM17.1707 27.2996C17.5863 27.2996 17.9228 27.6281 17.9228 28.034C17.9228 28.44 17.5863 28.7688 17.1707 28.7688C16.7552 28.7688 16.4187 28.44 16.4187 28.034C16.4187 27.6281 16.7552 27.2996 17.1707 27.2996ZM17.1707 26.0684C17.7236 26.0684 18.2267 26.2885 18.5912 26.6443L18.5947 26.6473C18.9577 27.0031 19.1826 27.4943 19.1826 28.034C19.1826 28.5749 18.9573 29.0657 18.5932 29.4222L18.5901 29.4253C18.2259 29.7799 17.7232 30 17.1707 30C16.6171 30 16.1148 29.7795 15.7502 29.4241L15.7467 29.4211C15.3837 29.0649 15.1589 28.5746 15.1589 28.034C15.1589 27.4939 15.3841 27.0024 15.7479 26.6462L15.7514 26.6432C16.1156 26.2881 16.6175 26.0684 17.1707 26.0684ZM29.9014 19.0316C29.9014 18.7606 30.1271 18.5402 30.4045 18.5402C30.6823 18.5402 30.9076 18.7606 30.9076 19.0316V22.5611L34.7652 22.8256C35.0418 22.8435 35.2511 23.0776 35.2328 23.3479C35.2146 23.6178 34.9753 23.8227 34.6986 23.8048L30.3983 23.5098C30.1236 23.5064 29.9014 23.2878 29.9014 23.0183V19.0316Z" fill="#5D4BFE"/>
</svg>
