<svg width="44" height="44" viewBox="0 0 44 44" fill="none" xmlns="http://www.w3.org/2000/svg">
<circle cx="22" cy="22" r="21" stroke="#1900FF" stroke-width="2"/>
<path d="M22 13.6875C22.7249 13.6875 23.3125 13.0999 23.3125 12.375C23.3125 11.6501 22.7249 11.0625 22 11.0625C21.2751 11.0625 20.6875 11.6501 20.6875 12.375C20.6875 13.0999 21.2751 13.6875 22 13.6875Z" fill="#5D4BFE" stroke="#5D4BFE" stroke-width="1.5" stroke-linecap="round" stroke-linejoin="round"/>
<path d="M22 23.3125C22.7249 23.3125 23.3125 22.7249 23.3125 22C23.3125 21.2751 22.7249 20.6875 22 20.6875C21.2751 20.6875 20.6875 21.2751 20.6875 22C20.6875 22.7249 21.2751 23.3125 22 23.3125Z" fill="#5D4BFE" stroke="#5D4BFE" stroke-width="1.5" stroke-linecap="round" stroke-linejoin="round"/>
<path d="M22 32.9375C22.7249 32.9375 23.3125 32.3499 23.3125 31.625C23.3125 30.9001 22.7249 30.3125 22 30.3125C21.2751 30.3125 20.6875 30.9001 20.6875 31.625C20.6875 32.3499 21.2751 32.9375 22 32.9375Z" fill="#5D4BFE" stroke="#5D4BFE" stroke-width="1.5" stroke-linecap="round" stroke-linejoin="round"/>
</svg>
